<?xml version="1.0" encoding="UTF-8" standalone="no"?>
<svg width="221px" height="68px" viewBox="0 0 221 68" version="1.1" xmlns="http://www.w3.org/2000/svg" xmlns:xlink="http://www.w3.org/1999/xlink">
    <!-- Generator: Sketch 41 (35326) - http://www.bohemiancoding.com/sketch -->
    <title>Logo - White</title>
    <desc>Created with Sketch.</desc>
    <defs>
        <polygon id="path-1" points="67.5156 68 0 68 0 0.3992 67.5156 0.3992 67.5156 68"></polygon>
    </defs>
    <g id="UI" stroke="none" stroke-width="1" fill="none" fill-rule="evenodd">
        <g id="Onboarding-1b-2" transform="translate(-77.000000, -258.000000)">
            <g id="Content" transform="translate(53.000000, 257.000000)">
                <g id="Logo---White" transform="translate(24.000000, 0.000000)">
                    <g id="Logo">
                        <g id="Group-3" transform="translate(0.000000, 0.600900)">
                            <mask id="mask-2" fill="white">
                                <use xlink:href="#path-1"></use>
                            </mask>
                            <g id="Clip-2"></g>
                            <path d="M47.9976,34.2842 C47.9976,42.1132 41.5906,48.4822 33.7156,48.4822 C25.8866,48.4822 19.5176,42.1132 19.5176,34.2842 C19.5176,26.4962 26.0186,19.9172 33.7156,19.9172 C41.5906,19.9172 47.9976,26.3622 47.9976,34.2842 M33.7156,0.3992 C15.1246,0.3992 -0.0004,15.5992 -0.0004,34.2842 C-0.0004,53.1902 14.8096,68.0002 33.7156,68.0002 C52.3516,68.0002 67.5156,52.8752 67.5156,34.2842 C67.5156,15.5992 52.3516,0.3992 33.7156,0.3992" id="Fill-1" fill="#FFFFFF" mask="url(#mask-2)"></path>
                        </g>
                        <path d="M111.9146,1.9036 L105.3146,1.9036 C103.7186,1.9036 102.4186,3.2036 102.4186,4.7996 L102.4186,20.0286 L83.5516,1.8706 C83.2066,1.5386 82.7466,1.3536 82.2686,1.3536 L80.8926,1.3536 C79.2956,1.3536 77.9966,2.6276 77.9966,4.1976 L78.0516,41.2126 C78.0516,42.7826 79.3776,44.1096 80.9466,44.1096 L87.4926,44.1096 C89.0906,44.1096 90.3906,42.8106 90.3906,41.2126 L90.3906,25.1266 L109.0146,43.8446 C109.5186,44.3486 110.4566,44.6596 111.0356,44.6596 L111.9146,44.6596 C113.5126,44.6596 114.8116,43.3856 114.8116,41.8186 L114.8116,4.7996 C114.8116,3.2306 113.4846,1.9036 111.9146,1.9036" id="Fill-4" fill="#FFFFFF"></path>
                        <path d="M175.6079,1.3533 L165.0219,1.3533 C162.5239,1.3533 160.4909,3.3863 160.4909,5.8853 L160.4909,40.7383 C160.4909,45.2693 157.1109,48.6863 152.6289,48.6863 C148.2469,48.6863 144.9409,45.2693 144.9409,40.7383 L144.9409,5.8853 C144.9409,3.3863 142.9079,1.3533 140.4099,1.3533 L129.8249,1.3533 C127.3689,1.3533 125.2939,3.4283 125.2939,5.8853 L125.2939,41.4263 C125.2939,56.2153 137.5549,68.2473 152.6289,68.2473 C167.7979,68.2473 180.1389,56.2153 180.1389,41.4263 L180.1389,5.8853 C180.1389,3.4283 178.0639,1.3533 175.6079,1.3533" id="Fill-6" fill="#FFFFFF"></path>
                        <path d="M207.9576,17.1634 C203.6736,15.4264 203.1236,14.3174 203.1236,13.5454 C203.1236,13.1564 203.7526,12.5914 204.7376,12.5914 C207.0776,12.5914 210.1736,14.6534 211.1906,15.3304 C211.3506,15.4364 211.4796,15.5214 211.5766,15.5814 C212.1306,15.9664 212.8236,16.1074 213.5496,15.9834 C214.5236,15.8154 215.5006,15.1624 216.0186,14.3484 L218.8226,10.1134 C218.8456,10.0794 218.8656,10.0454 218.8866,10.0104 C219.5206,8.9024 219.5496,6.7934 217.9836,5.7934 C214.0556,2.9294 209.5116,1.3534 205.1776,1.3534 C195.6206,1.3534 190.6206,7.7904 190.6206,14.1504 C190.6206,20.0794 194.8256,25.0084 202.4606,28.0284 C206.9576,29.8134 206.9576,31.3544 206.9576,31.8614 C206.9576,32.8634 205.9806,33.3114 205.0136,33.3114 C203.7896,33.3114 201.6516,32.8624 198.4206,30.7194 C198.3506,30.6734 198.2896,30.6334 198.2366,30.6014 C197.5626,30.1404 196.6086,29.9644 195.7316,30.1424 C194.8916,30.3114 194.1886,30.7934 193.7226,31.5544 L191.1406,36.1144 C189.9786,38.1464 191.1496,39.3184 191.7136,39.8834 C192.8356,41.0034 197.1376,44.6604 205.3976,44.6604 C214.6836,44.6604 220.2306,37.9294 220.2306,31.4214 C220.2306,22.0434 211.0006,18.3714 207.9576,17.1634" id="Fill-8" fill="#FFFFFF"></path>
                    </g>
                </g>
            </g>
        </g>
    </g>
</svg>